<svg xmlns="http://www.w3.org/2000/svg" version="1.1" xmlns:xlink="http://www.w3.org/1999/xlink" xmlns:svgjs="http://svgjs.dev/svgjs" width="100%" height="100%" viewBox="0 0 1800 400" opacity="0" style="transform: translate(0px); opacity: 1;"><g class="quarter-circle"><rect width="100" height="100" fill="#cc333f" x="0" y="0"></rect><g mask="url(&quot;#SvgjsMask2324&quot;)"><circle r="100" cx="100" cy="100" fill="#eb6841"></circle></g></g><defs><mask id="SvgjsMask2324"><rect width="100" height="100" fill="#ffffff" x="0" y="0"></rect></mask><mask id="SvgjsMask2325"><rect width="100" height="100" fill="#ffffff" x="0" y="300"></rect></mask><mask id="SvgjsMask2326"><rect width="100" height="100" fill="#ffffff" x="100" y="0"></rect></mask><mask id="SvgjsMask2327"><rect width="100" height="100" fill="#ffffff" x="100" y="300"></rect></mask><mask id="SvgjsMask2328"><rect width="100" height="100" fill="#ffffff" x="300" y="100"></rect></mask><mask id="SvgjsMask2329"><rect width="100" height="100" fill="#ffffff" x="300" y="200"></rect></mask><mask id="SvgjsMask2330"><rect width="100" height="100" fill="#ffffff" x="500" y="200"></rect></mask><mask id="SvgjsMask2331"><rect width="100" height="100" fill="#ffffff" x="700" y="100"></rect></mask><mask id="SvgjsMask2332"><rect width="100" height="100" fill="#ffffff" x="700" y="200"></rect></mask><mask id="SvgjsMask2333"><rect width="100" height="100" fill="#ffffff" x="800" y="200"></rect></mask><mask id="SvgjsMask2334"><rect width="100" height="100" fill="#ffffff" x="900" y="0"></rect></mask><mask id="SvgjsMask2335"><rect width="100" height="100" fill="#ffffff" x="900" y="200"></rect></mask><mask id="SvgjsMask2336"><rect width="100" height="100" fill="#ffffff" x="1000" y="100"></rect></mask><mask id="SvgjsMask2337"><rect width="100" height="100" fill="#ffffff" x="1100" y="100"></rect></mask><mask id="SvgjsMask2338"><rect width="100" height="100" fill="#ffffff" x="1100" y="300"></rect></mask><mask id="SvgjsMask2339"><rect width="100" height="100" fill="#ffffff" x="1200" y="200"></rect></mask><mask id="SvgjsMask2340"><rect width="100" height="100" fill="#ffffff" x="1400" y="200"></rect></mask><mask id="SvgjsMask2341"><rect width="100" height="100" fill="#ffffff" x="1400" y="300"></rect></mask><mask id="SvgjsMask2342"><rect width="100" height="100" fill="#ffffff" x="1700" y="300"></rect></mask></defs><g class="dots"><rect width="100" height="100" fill="#eb6841" x="0" y="100"></rect><circle r="5" cx="15" cy="115" fill="#6a4a3c"></circle><circle r="5" cx="15" cy="150" fill="#6a4a3c"></circle><circle r="5" cx="15" cy="185" fill="#6a4a3c"></circle><circle r="5" cx="50" cy="115" fill="#6a4a3c"></circle><circle r="5" cx="50" cy="150" fill="#6a4a3c"></circle><circle r="5" cx="50" cy="185" fill="#6a4a3c"></circle><circle r="5" cx="85" cy="115" fill="#6a4a3c"></circle><circle r="5" cx="85" cy="150" fill="#6a4a3c"></circle><circle r="5" cx="85" cy="185" fill="#6a4a3c"></circle></g><g class="dots"><rect width="100" height="100" fill="#cc333f" x="0" y="200"></rect><circle r="5" cx="15" cy="215" fill="#00a0b0"></circle><circle r="5" cx="15" cy="250" fill="#00a0b0"></circle><circle r="5" cx="15" cy="285" fill="#00a0b0"></circle><circle r="5" cx="50" cy="215" fill="#00a0b0"></circle><circle r="5" cx="50" cy="250" fill="#00a0b0"></circle><circle r="5" cx="50" cy="285" fill="#00a0b0"></circle><circle r="5" cx="85" cy="215" fill="#00a0b0"></circle><circle r="5" cx="85" cy="250" fill="#00a0b0"></circle><circle r="5" cx="85" cy="285" fill="#00a0b0"></circle></g><g class="half-square" mask="url(&quot;#SvgjsMask2325&quot;)"><rect width="100" height="100" fill="#eb6841" x="0" y="300"></rect><text font-family="Source Code Pro" font-size="120" font-weight="800" text-anchor="middle" fill="#00a0b0" x="50" y="392.92308044433594" transform="matrix(6.123233995736766e-17,1,-1,6.123233995736766e-17,400.0000066757202,300.00000858306885)">T</text></g><g class="quarter-circle"><rect width="100" height="100" fill="#00a0b0" x="100" y="0"></rect><g mask="url(&quot;#SvgjsMask2326&quot;)"><circle r="100" cx="200" cy="100" fill="#6a4a3c"></circle></g></g><g class="draw-circle"><rect width="100" height="100" fill="#6a4a3c" x="100" y="100"></rect><circle r="50" cx="150" cy="150" fill="#cc333f"></circle></g><g class="draw-cross"><rect width="100" height="100" fill="#eb6841" x="100" y="200"></rect></g><g><rect width="66.66666666666667" height="20" fill="#00a0b0" x="116.66666666666666" y="240"></rect><rect width="66.66666666666667" height="20" fill="#00a0b0" x="116.66666666666666" y="240" transform="matrix(6.123233995736766e-17,1,-1,6.123233995736766e-17,399.99999618530273,100.00000381469724)"></rect></g><g class="quarter-circle"><rect width="100" height="100" fill="#00a0b0" x="100" y="300"></rect><g mask="url(&quot;#SvgjsMask2327&quot;)"><circle r="100" cx="200" cy="400" fill="#cc333f"></circle><circle r="50" cx="200" cy="400" fill="#00a0b0"></circle></g></g><g class="draw-circle"><rect width="100" height="100" fill="#6a4a3c" x="200" y="0"></rect><circle r="50" cx="250" cy="50" fill="#cc333f"></circle></g><g class="diagonal-square"><rect width="100" height="100" fill="#edc951" x="200" y="100"></rect><polygon points="200,100 300,100 300,200" fill="#cc333f"></polygon></g><g class="half-square"><rect width="100" height="100" fill="#6a4a3c" x="200" y="200"></rect><rect width="100" height="50" fill="#eb6841" x="200" y="200"></rect></g><g class="half-square"><rect width="100" height="100" fill="#edc951" x="200" y="300"></rect><rect width="100" height="50" fill="#6a4a3c" x="200" y="300"></rect></g><g class="draw-circle"><rect width="100" height="100" fill="#eb6841" x="300" y="0"></rect><circle r="50" cx="350" cy="50" fill="#edc951"></circle></g><g class="opposite-circles"><rect width="100" height="100" fill="#edc951" x="300" y="100"></rect><g mask="url(&quot;#SvgjsMask2328&quot;)"><circle r="50" cx="300" cy="200" fill="#6a4a3c"></circle><circle r="50" cx="400" cy="100" fill="#6a4a3c"></circle></g></g><g class="opposite-circles"><rect width="100" height="100" fill="#6a4a3c" x="300" y="200"></rect><g mask="url(&quot;#SvgjsMask2329&quot;)"><circle r="50" cx="300" cy="200" fill="#eb6841"></circle><circle r="50" cx="400" cy="300" fill="#eb6841"></circle></g></g><g class="dots"><rect width="100" height="100" fill="#6a4a3c" x="300" y="300"></rect><circle r="5" cx="315" cy="315" fill="#edc951"></circle><circle r="5" cx="315" cy="350" fill="#edc951"></circle><circle r="5" cx="315" cy="385" fill="#edc951"></circle><circle r="5" cx="350" cy="315" fill="#edc951"></circle><circle r="5" cx="350" cy="350" fill="#edc951"></circle><circle r="5" cx="350" cy="385" fill="#edc951"></circle><circle r="5" cx="385" cy="315" fill="#edc951"></circle><circle r="5" cx="385" cy="350" fill="#edc951"></circle><circle r="5" cx="385" cy="385" fill="#edc951"></circle></g><g class="half-square"><rect width="100" height="100" fill="#6a4a3c" x="400" y="0"></rect><rect width="100" height="50" fill="#eb6841" x="400" y="0"></rect></g><g class="diagonal-square"><rect width="100" height="100" fill="#eb6841" x="400" y="100"></rect><polygon points="400,100 500,100 500,200" fill="#00a0b0"></polygon></g><g class="dots"><rect width="100" height="100" fill="#cc333f" x="400" y="200"></rect><circle r="5" cx="415" cy="215" fill="#6a4a3c"></circle><circle r="5" cx="415" cy="250" fill="#6a4a3c"></circle><circle r="5" cx="415" cy="285" fill="#6a4a3c"></circle><circle r="5" cx="450" cy="215" fill="#6a4a3c"></circle><circle r="5" cx="450" cy="250" fill="#6a4a3c"></circle><circle r="5" cx="450" cy="285" fill="#6a4a3c"></circle><circle r="5" cx="485" cy="215" fill="#6a4a3c"></circle><circle r="5" cx="485" cy="250" fill="#6a4a3c"></circle><circle r="5" cx="485" cy="285" fill="#6a4a3c"></circle></g><g class="diagonal-square"><rect width="100" height="100" fill="#6a4a3c" x="400" y="300"></rect><polygon points="400,300 400,400, 500,300" fill="#edc951"></polygon></g><g class="dots"><rect width="100" height="100" fill="#6a4a3c" x="500" y="0"></rect><circle r="5" cx="515" cy="15" fill="#cc333f"></circle><circle r="5" cx="515" cy="50" fill="#cc333f"></circle><circle r="5" cx="515" cy="85" fill="#cc333f"></circle><circle r="5" cx="550" cy="15" fill="#cc333f"></circle><circle r="5" cx="550" cy="50" fill="#cc333f"></circle><circle r="5" cx="550" cy="85" fill="#cc333f"></circle><circle r="5" cx="585" cy="15" fill="#cc333f"></circle><circle r="5" cx="585" cy="50" fill="#cc333f"></circle><circle r="5" cx="585" cy="85" fill="#cc333f"></circle></g><g class="half-square"><rect width="100" height="100" fill="#edc951" x="500" y="100"></rect><rect width="100" height="50" fill="#6a4a3c" x="500" y="100"></rect></g><g class="quarter-circle"><rect width="100" height="100" fill="#cc333f" x="500" y="200"></rect><g mask="url(&quot;#SvgjsMask2330&quot;)"><circle r="100" cx="600" cy="300" fill="#6a4a3c"></circle><circle r="50" cx="600" cy="300" fill="#cc333f"></circle></g></g><g class="diagonal-square"><rect width="100" height="100" fill="#6a4a3c" x="500" y="300"></rect><polygon points="500,300 600,300 600,400" fill="#edc951"></polygon></g><g class="draw-circle"><rect width="100" height="100" fill="#cc333f" x="600" y="0"></rect><circle r="50" cx="650" cy="50" fill="#00a0b0"></circle><circle r="25" cx="650" cy="50" fill="#cc333f"></circle></g><g class="draw-cross"><rect width="100" height="100" fill="#eb6841" x="600" y="100"></rect></g><g><rect width="66.66666666666667" height="20" fill="#cc333f" x="616.6666666666666" y="140"></rect><rect width="66.66666666666667" height="20" fill="#cc333f" x="616.6666666666666" y="140" transform="matrix(6.123233995736766e-17,1,-1,6.123233995736766e-17,800.0000305175781,-500.0000305175781)"></rect></g><g class="dots"><rect width="100" height="100" fill="#cc333f" x="600" y="200"></rect><circle r="5" cx="615" cy="215" fill="#eb6841"></circle><circle r="5" cx="615" cy="250" fill="#eb6841"></circle><circle r="5" cx="615" cy="285" fill="#eb6841"></circle><circle r="5" cx="650" cy="215" fill="#eb6841"></circle><circle r="5" cx="650" cy="250" fill="#eb6841"></circle><circle r="5" cx="650" cy="285" fill="#eb6841"></circle><circle r="5" cx="685" cy="215" fill="#eb6841"></circle><circle r="5" cx="685" cy="250" fill="#eb6841"></circle><circle r="5" cx="685" cy="285" fill="#eb6841"></circle></g><g class="draw-circle"><rect width="100" height="100" fill="#00a0b0" x="600" y="300"></rect><circle r="50" cx="650" cy="350" fill="#eb6841"></circle><circle r="25" cx="650" cy="350" fill="#00a0b0"></circle></g><g class="draw-cross"><rect width="100" height="100" fill="#cc333f" x="700" y="0"></rect></g><g><rect width="66.66666666666667" height="20" fill="#6a4a3c" x="716.6666666666666" y="40"></rect><rect width="66.66666666666667" height="20" fill="#6a4a3c" x="716.6666666666666" y="40" transform="matrix(6.123233995736766e-17,1,-1,6.123233995736766e-17,800.0000305175781,-700.0000305175781)"></rect></g><g class="half-square" mask="url(&quot;#SvgjsMask2331&quot;)"><rect width="100" height="100" fill="#6a4a3c" x="700" y="100"></rect><text font-family="Source Code Pro" font-size="120" font-weight="800" text-anchor="middle" fill="#cc333f" x="750" y="192.92308044433594" transform="matrix(6.123233995736766e-17,1,-1,6.123233995736766e-17,900,-600)">U</text></g><g class="half-square" mask="url(&quot;#SvgjsMask2332&quot;)"><rect width="100" height="100" fill="#cc333f" x="700" y="200"></rect><text font-family="Source Code Pro" font-size="120" font-weight="800" text-anchor="middle" fill="#edc951" x="750" y="292.92308044433594" transform="matrix(-1,1.2246467991473532e-16,-1.2246467991473532e-16,-1,1500,500.0000457763671)">Z</text></g><g class="half-square"><rect width="100" height="100" fill="#eb6841" x="700" y="300"></rect><rect width="100" height="50" fill="#cc333f" x="700" y="300"></rect></g><g class="half-square"><rect width="100" height="100" fill="#cc333f" x="800" y="0"></rect><rect width="100" height="50" fill="#6a4a3c" x="800" y="0"></rect></g><g class="half-square"><rect width="100" height="100" fill="#eb6841" x="800" y="100"></rect><rect width="50" height="100" fill="#cc333f" x="800" y="100"></rect></g><g class="quarter-circle"><rect width="100" height="100" fill="#00a0b0" x="800" y="200"></rect><g mask="url(&quot;#SvgjsMask2333&quot;)"><circle r="100" cx="900" cy="300" fill="#cc333f"></circle><circle r="50" cx="900" cy="300" fill="#00a0b0"></circle></g></g><g class="half-square"><rect width="100" height="100" fill="#edc951" x="800" y="300"></rect><rect width="50" height="100" fill="#00a0b0" x="800" y="300"></rect></g><g class="opposite-circles"><rect width="100" height="100" fill="#6a4a3c" x="900" y="0"></rect><g mask="url(&quot;#SvgjsMask2334&quot;)"><circle r="50" cx="900" cy="0" fill="#eb6841"></circle><circle r="50" cx="1000" cy="100" fill="#eb6841"></circle></g></g><g class="half-square"><rect width="100" height="100" fill="#00a0b0" x="900" y="100"></rect><rect width="50" height="100" fill="#6a4a3c" x="900" y="100"></rect></g><g class="quarter-circle"><rect width="100" height="100" fill="#6a4a3c" x="900" y="200"></rect><g mask="url(&quot;#SvgjsMask2335&quot;)"><circle r="100" cx="1000" cy="200" fill="#cc333f"></circle></g></g><g class="draw-circle"><rect width="100" height="100" fill="#eb6841" x="900" y="300"></rect><circle r="50" cx="950" cy="350" fill="#edc951"></circle></g><g class="dots"><rect width="100" height="100" fill="#6a4a3c" x="1000" y="0"></rect><circle r="5" cx="1015" cy="15" fill="#cc333f"></circle><circle r="5" cx="1015" cy="50" fill="#cc333f"></circle><circle r="5" cx="1015" cy="85" fill="#cc333f"></circle><circle r="5" cx="1050" cy="15" fill="#cc333f"></circle><circle r="5" cx="1050" cy="50" fill="#cc333f"></circle><circle r="5" cx="1050" cy="85" fill="#cc333f"></circle><circle r="5" cx="1085" cy="15" fill="#cc333f"></circle><circle r="5" cx="1085" cy="50" fill="#cc333f"></circle><circle r="5" cx="1085" cy="85" fill="#cc333f"></circle></g><g class="half-square" mask="url(&quot;#SvgjsMask2336&quot;)"><rect width="100" height="100" fill="#eb6841" x="1000" y="100"></rect><text font-family="Source Code Pro" font-size="120" font-weight="800" text-anchor="middle" fill="#edc951" x="1050" y="192.92308044433594" transform="matrix(-1,1.2246467991473532e-16,-1.2246467991473532e-16,-1,2100,299.9999999999999)">Y</text></g><g class="draw-circle"><rect width="100" height="100" fill="#6a4a3c" x="1000" y="200"></rect><circle r="50" cx="1050" cy="250" fill="#eb6841"></circle></g><g class="dots"><rect width="100" height="100" fill="#cc333f" x="1000" y="300"></rect><circle r="5" cx="1015" cy="315" fill="#eb6841"></circle><circle r="5" cx="1015" cy="385" fill="#eb6841"></circle><circle r="5" cx="1085" cy="315" fill="#eb6841"></circle><circle r="5" cx="1085" cy="385" fill="#eb6841"></circle></g><g class="dots"><rect width="100" height="100" fill="#6a4a3c" x="1100" y="0"></rect><circle r="5" cx="1115" cy="15" fill="#eb6841"></circle><circle r="5" cx="1115" cy="50" fill="#eb6841"></circle><circle r="5" cx="1115" cy="85" fill="#eb6841"></circle><circle r="5" cx="1150" cy="15" fill="#eb6841"></circle><circle r="5" cx="1150" cy="50" fill="#eb6841"></circle><circle r="5" cx="1150" cy="85" fill="#eb6841"></circle><circle r="5" cx="1185" cy="15" fill="#eb6841"></circle><circle r="5" cx="1185" cy="50" fill="#eb6841"></circle><circle r="5" cx="1185" cy="85" fill="#eb6841"></circle></g><g class="half-square" mask="url(&quot;#SvgjsMask2337&quot;)"><rect width="100" height="100" fill="#eb6841" x="1100" y="100"></rect><text font-family="Source Code Pro" font-size="120" font-weight="800" text-anchor="middle" fill="#6a4a3c" x="1150" y="192.92308044433594" transform="matrix(-1,1.2246467991473532e-16,-1.2246467991473532e-16,-1,2300,299.9999999999999)">B</text></g><g class="diagonal-square"><rect width="100" height="100" fill="#00a0b0" x="1100" y="200"></rect><polygon points="1100,200 1100,300, 1200,200" fill="#edc951"></polygon></g><g class="quarter-circle"><rect width="100" height="100" fill="#6a4a3c" x="1100" y="300"></rect><g mask="url(&quot;#SvgjsMask2338&quot;)"><circle r="100" cx="1200" cy="400" fill="#edc951"></circle><circle r="50" cx="1200" cy="400" fill="#6a4a3c"></circle></g></g><g class="half-square"><rect width="100" height="100" fill="#eb6841" x="1200" y="0"></rect><rect width="100" height="50" fill="#6a4a3c" x="1200" y="0"></rect></g><g class="diagonal-square"><rect width="100" height="100" fill="#cc333f" x="1200" y="100"></rect><polygon points="1200,100 1200,200, 1300,100" fill="#00a0b0"></polygon></g><g class="opposite-circles"><rect width="100" height="100" fill="#edc951" x="1200" y="200"></rect><g mask="url(&quot;#SvgjsMask2339&quot;)"><circle r="50" cx="1200" cy="300" fill="#eb6841"></circle><circle r="50" cx="1300" cy="200" fill="#eb6841"></circle></g></g><g class="dots"><rect width="100" height="100" fill="#6a4a3c" x="1200" y="300"></rect><circle r="5" cx="1215" cy="315" fill="#00a0b0"></circle><circle r="5" cx="1215" cy="385" fill="#00a0b0"></circle><circle r="5" cx="1285" cy="315" fill="#00a0b0"></circle><circle r="5" cx="1285" cy="385" fill="#00a0b0"></circle></g><g class="diagonal-square"><rect width="100" height="100" fill="#cc333f" x="1300" y="0"></rect><polygon points="1300,0 1300,100, 1400,0" fill="#edc951"></polygon></g><g class="draw-circle"><rect width="100" height="100" fill="#cc333f" x="1300" y="100"></rect><circle r="50" cx="1350" cy="150" fill="#eb6841"></circle><circle r="25" cx="1350" cy="150" fill="#cc333f"></circle></g><g class="half-square"><rect width="100" height="100" fill="#6a4a3c" x="1300" y="200"></rect><rect width="100" height="50" fill="#edc951" x="1300" y="200"></rect></g><g class="diagonal-square"><rect width="100" height="100" fill="#cc333f" x="1300" y="300"></rect><polygon points="1300,300 1300,400, 1400,300" fill="#eb6841"></polygon></g><g class="draw-cross"><rect width="100" height="100" fill="#edc951" x="1400" y="0"></rect></g><g><rect width="66.66666666666667" height="20" fill="#00a0b0" x="1416.6666666666667" y="40"></rect><rect width="66.66666666666667" height="20" fill="#00a0b0" x="1416.6666666666667" y="40" transform="matrix(6.123233995736766e-17,1,-1,6.123233995736766e-17,1499.9999389648438,-1399.9999389648438)"></rect></g><g class="half-square"><rect width="100" height="100" fill="#6a4a3c" x="1400" y="100"></rect><rect width="100" height="50" fill="#00a0b0" x="1400" y="100"></rect></g><g class="opposite-circles"><rect width="100" height="100" fill="#eb6841" x="1400" y="200"></rect><g mask="url(&quot;#SvgjsMask2340&quot;)"><circle r="50" cx="1400" cy="300" fill="#cc333f"></circle><circle r="50" cx="1500" cy="200" fill="#cc333f"></circle></g></g><g class="half-square" mask="url(&quot;#SvgjsMask2341&quot;)"><rect width="100" height="100" fill="#6a4a3c" x="1400" y="300"></rect><text font-family="Source Code Pro" font-size="120" font-weight="800" text-anchor="middle" fill="#cc333f" x="1450" y="392.92308044433594" transform="matrix(1,0,0,1,0,0)">W</text></g><g class="dots"><rect width="100" height="100" fill="#edc951" x="1500" y="0"></rect><circle r="5" cx="1515" cy="15" fill="#00a0b0"></circle><circle r="5" cx="1515" cy="38.33333333333333" fill="#00a0b0"></circle><circle r="5" cx="1515" cy="61.666666666666664" fill="#00a0b0"></circle><circle r="5" cx="1515" cy="85" fill="#00a0b0"></circle><circle r="5" cx="1538.3333333333333" cy="15" fill="#00a0b0"></circle><circle r="5" cx="1538.3333333333333" cy="38.33333333333333" fill="#00a0b0"></circle><circle r="5" cx="1538.3333333333333" cy="61.666666666666664" fill="#00a0b0"></circle><circle r="5" cx="1538.3333333333333" cy="85" fill="#00a0b0"></circle><circle r="5" cx="1561.6666666666667" cy="15" fill="#00a0b0"></circle><circle r="5" cx="1561.6666666666667" cy="38.33333333333333" fill="#00a0b0"></circle><circle r="5" cx="1561.6666666666667" cy="61.666666666666664" fill="#00a0b0"></circle><circle r="5" cx="1561.6666666666667" cy="85" fill="#00a0b0"></circle><circle r="5" cx="1585" cy="15" fill="#00a0b0"></circle><circle r="5" cx="1585" cy="38.33333333333333" fill="#00a0b0"></circle><circle r="5" cx="1585" cy="61.666666666666664" fill="#00a0b0"></circle><circle r="5" cx="1585" cy="85" fill="#00a0b0"></circle></g><g class="half-square"><rect width="100" height="100" fill="#6a4a3c" x="1500" y="100"></rect><rect width="50" height="100" fill="#eb6841" x="1500" y="100"></rect></g><g class="draw-cross"><rect width="100" height="100" fill="#edc951" x="1500" y="200"></rect></g><g transform="matrix(0.7071067811865476,0.7071067811865475,-0.7071067811865475,0.7071067811865476,630.7611234223319,-1022.792180854196)"><rect width="66.66666666666667" height="20" fill="#eb6841" x="1516.6666666666667" y="240"></rect><rect width="66.66666666666667" height="20" fill="#eb6841" x="1516.6666666666667" y="240" transform="matrix(6.123233995736766e-17,1,-1,6.123233995736766e-17,1799.9999389648438,-1299.9999389648438)"></rect></g><g class="diagonal-square"><rect width="100" height="100" fill="#cc333f" x="1500" y="300"></rect><polygon points="1500,300 1600,300 1600,400" fill="#6a4a3c"></polygon></g><g class="draw-circle"><rect width="100" height="100" fill="#edc951" x="1600" y="0"></rect><circle r="50" cx="1650" cy="50" fill="#00a0b0"></circle></g><g class="half-square"><rect width="100" height="100" fill="#eb6841" x="1600" y="100"></rect><rect width="50" height="100" fill="#6a4a3c" x="1600" y="100"></rect></g><g class="draw-cross"><rect width="100" height="100" fill="#cc333f" x="1600" y="200"></rect></g><g><rect width="66.66666666666667" height="20" fill="#6a4a3c" x="1616.6666666666667" y="240"></rect><rect width="66.66666666666667" height="20" fill="#6a4a3c" x="1616.6666666666667" y="240" transform="matrix(6.123233995736766e-17,1,-1,6.123233995736766e-17,1899.9999389648438,-1399.9999389648438)"></rect></g><g class="diagonal-square"><rect width="100" height="100" fill="#6a4a3c" x="1600" y="300"></rect><polygon points="1600,300 1600,400, 1700,300" fill="#edc951"></polygon></g><g class="diagonal-square"><rect width="100" height="100" fill="#eb6841" x="1700" y="0"></rect><polygon points="1700,0 1700,100, 1800,0" fill="#6a4a3c"></polygon></g><g class="diagonal-square"><rect width="100" height="100" fill="#00a0b0" x="1700" y="100"></rect><polygon points="1700,100 1700,200, 1800,100" fill="#cc333f"></polygon></g><g class="dots"><rect width="100" height="100" fill="#eb6841" x="1700" y="200"></rect><circle r="5" cx="1715" cy="215" fill="#6a4a3c"></circle><circle r="5" cx="1715" cy="250" fill="#6a4a3c"></circle><circle r="5" cx="1715" cy="285" fill="#6a4a3c"></circle><circle r="5" cx="1750" cy="215" fill="#6a4a3c"></circle><circle r="5" cx="1750" cy="250" fill="#6a4a3c"></circle><circle r="5" cx="1750" cy="285" fill="#6a4a3c"></circle><circle r="5" cx="1785" cy="215" fill="#6a4a3c"></circle><circle r="5" cx="1785" cy="250" fill="#6a4a3c"></circle><circle r="5" cx="1785" cy="285" fill="#6a4a3c"></circle></g><g class="half-square" mask="url(&quot;#SvgjsMask2342&quot;)"><rect width="100" height="100" fill="#edc951" x="1700" y="300"></rect><text font-family="Source Code Pro" font-size="120" font-weight="800" text-anchor="middle" fill="#6a4a3c" x="1750" y="392.92308044433594" transform="matrix(1,0,0,1,0,0)">E</text></g><g class="half-square"><rect width="300" height="300" fill="#00a0b0" x="900" y="0"></rect><rect width="300" height="150" fill="#cc333f" x="900" y="0"></rect></g></svg>
